PathFileType	4	(X/Y/Z)	jw_hip_rstar.trc	
DataRate	CameraRate	NumFrames	NumMarkers	Units	OrigDataRate	OrigDataStartFrame	OrigNumFrames	
120.00	120.00	38	8	mm	120.00	1	1647	
Frame#	Time	RAsis			LAsis			RPsis			LPsis			RThighSuperior			RThighInferior			RThighLateral			RPatella			
		X1	Y1	Z1	X2	Y2	Z2	X3	Y3	Z3	X4	Y4	Z4	X5	Y5	Z5	X6	Y6	Z6	X7	Y7	Z7	X8	Y8	Z8	

1	0.000	-477.98965	148.50433	1036.96170	-218.10406	97.92950	998.48151	-324.01190	328.00711	964.35559	-267.71948	315.13629	965.35809	-475.43149	154.67342	578.03998	-467.33075	109.78884	674.08557	-436.95551	119.28804	507.80298	0.00000	-0.00000	0.00000 
2	0.008	-477.93399	148.23508	1036.95640	-218.03032	97.78333	998.41193	-323.99069	327.79453	964.39307	-267.75143	314.99109	965.32855	-475.36105	154.46754	577.95483	-467.18222	109.50681	674.01868	-436.91156	119.12048	507.69711	0.00000	-0.00000	0.00000 
3	0.017	-477.81668	147.87286	1036.93040	-217.88745	97.60716	998.31622	-324.01724	327.68411	964.36810	-267.80902	314.83273	965.34174	-516.96704	203.87186	816.13824	-475.19836	154.17191	577.83130	-467.13669	109.30797	673.92963	-436.85071	118.96625	507.64178 
4	0.025	-477.68008	147.52588	1036.82950	-217.82098	97.43969	998.23004	-324.08411	327.52164	964.38525	-267.83624	314.72766	965.35138	-516.92896	203.62430	816.14276	-474.99649	153.96405	577.66431	-467.01117	109.06327	673.91608	-436.77765	118.85741	507.56628 
5	0.033	-477.54709	147.18883	1036.76550	-217.66739	97.27264	998.17664	-324.07306	327.34964	964.39996	-267.85239	314.55713	965.39398	-516.84497	203.42120	816.13025	-474.94116	153.77348	577.57965	-466.89737	108.86796	673.80072	-436.70627	118.69199	507.51532 
6	0.042	-477.39365	146.90997	1036.70120	-217.52448	97.14217	998.10608	-324.09418	327.13361	964.42737	-267.85757	314.40042	965.37732	-516.91681	203.29440	816.05219	-474.91977	153.59311	577.56500	-466.83093	108.72602	673.78516	-436.70712	118.58282	507.46185 
7	0.050	-477.32312	146.62383	1036.74510	-217.39627	97.08603	998.09381	-324.12961	326.97641	964.42883	-267.88101	314.29208	965.36456	-517.03076	202.97307	816.17993	-474.88437	153.49802	577.60571	-466.72958	108.56120	673.73663	-436.63394	118.50933	507.46835 
8	0.058	-477.21259	146.41081	1036.79240	-217.26144	96.98224	998.09790	-324.20712	326.84064	964.44263	-267.91196	314.15189	965.40985	-517.04633	202.83311	816.19354	-474.88007	153.39534	577.68970	-466.66623	108.44799	673.78979	-436.60376	118.47189	507.49200 
9	0.067	-477.16101	146.17755	1036.85840	-217.11606	96.89986	998.14679	-324.27319	326.68826	964.50604	-267.95654	314.04608	965.39624	-517.03491	202.54900	816.18970	-474.91428	153.33244	577.81097	-466.61795	108.35228	673.83423	-436.53152	118.34522	507.57431 
10	0.075	-477.07285	145.92474	1036.94580	-216.94406	96.88828	998.19336	-324.34894	326.53012	964.51379	-267.98544	313.94351	965.41626	-517.16919	202.38245	816.31024	-474.84363	153.23067	577.85516	-466.57440	108.24241	673.83276	-436.55759	118.39550	507.51984 
11	0.083	-476.98041	145.62209	1037.00060	-216.77061	96.82386	998.19232	-324.42523	326.35181	964.50067	-267.95670	313.79660	965.42078	-517.26178	202.21297	816.40198	-474.80850	153.07735	577.88519	-466.51285	108.15389	673.88477	-436.54568	118.35442	507.56799 
12	0.092	-476.89404	145.39357	1036.99900	-216.57677	96.68291	998.22839	-324.46310	326.18817	964.44879	-267.90219	313.66071	965.40240	-517.32416	202.06223	816.51501	-474.83408	152.99005	577.89587	-466.43912	108.03956	673.83807	-436.47089	118.22198	507.65778 
13	0.100	-476.77231	145.12891	1037.02540	-216.38612	96.59512	998.21326	-324.55783	325.96609	964.46613	-267.90408	313.48779	965.40106	-517.78717	201.90169	816.88464	-474.79025	152.84927	577.93542	-466.38757	107.85945	673.87738	-436.43185	118.07298	507.64798 
14	0.108	-476.67123	144.92365	1037.02440	-216.30812	96.54127	998.20203	-324.51575	325.83218	964.48273	-267.91608	313.39981	965.39465	-518.09076	201.99904	817.07349	-474.68567	152.71597	577.92285	-466.30127	107.70667	673.86566	-436.33984	117.96336	507.66647 
15	0.117	-476.55325	144.66234	1037.00560	-216.14034	96.41727	998.16766	-324.60361	325.65054	964.45447	-267.91705	313.27713	965.40204	-518.14001	201.93031	817.10797	-474.60947	152.53201	577.89850	-466.19348	107.58640	673.82703	-436.27350	117.77834	507.60275 
16	0.125	-476.38403	144.40819	1036.95810	-215.97458	96.30758	998.05682	-324.61414	325.52911	964.50128	-267.84906	313.17374	965.40881	-517.98108	201.73396	817.00812	-474.52548	152.34360	577.85040	-466.09137	107.36930	673.79150	-436.11615	117.63322	507.50018 
17	0.133	-476.25946	144.11670	1036.84560	-215.79497	96.16138	998.02344	-324.58093	325.37421	964.48340	-267.79990	313.02710	965.37634	-517.74780	201.45728	816.91119	-474.45416	152.12936	577.82324	-465.97150	107.17706	673.74426	-436.01471	117.40198	507.46555 
18	0.142	-476.06937	143.93102	1036.71420	-215.68613	95.97794	997.91858	-324.59329	325.23798	964.46790	-267.69864	312.93045	965.35370	-517.00623	201.15948	816.71484	-474.35385	151.98827	577.67700	-465.90161	107.02824	673.60297	-435.96841	117.31256	507.35349 
19	0.150	-475.96344	143.68005	1036.67180	-215.60876	95.86976	997.84949	-324.43991	325.06360	964.48334	-267.67764	312.79709	965.32465	-516.51862	200.71735	816.35541	-474.34247	151.79120	577.58319	-465.83734	106.83070	673.59546	-435.90994	117.15873	507.31070 
20	0.158	-475.86075	143.50040	1036.67570	-215.47452	95.73223	997.81903	-324.34506	324.91449	964.46576	-267.60287	312.68036	965.33002	-516.18774	200.46202	816.17426	-474.19464	151.71233	577.49658	-465.69949	106.66628	673.56824	-435.87003	117.06583	507.27701 
21	0.167	-475.77551	143.31000	1036.71890	-215.38200	95.63023	997.82178	-324.27139	324.81284	964.56274	-267.55896	312.56580	965.33521	-515.79919	200.15575	816.18750	-474.16177	151.58789	577.51367	-465.58865	106.45731	673.61481	-435.77841	116.97225	507.29514 
22	0.175	-475.66406	143.16792	1036.70480	-215.28458	95.52544	997.81787	-324.22342	324.68015	964.58618	-267.47372	312.48792	965.35345	-515.67334	199.94064	816.20270	-474.05573	151.49251	577.49640	-465.50299	106.34996	673.59924	-435.70602	116.87424	507.29257 
23	0.183	-475.58664	142.99768	1036.73660	-215.16759	95.43093	997.83191	-324.10196	324.55838	964.61017	-267.44525	312.34766	965.34528	-515.69171	199.80620	816.21985	-474.06802	151.44954	577.56653	-465.47833	106.22501	673.62372	-435.71634	116.78259	507.32471 
24	0.192	-475.48569	142.83488	1036.76090	-215.10815	95.33608	997.82233	-323.94485	324.41901	964.62610	-267.29126	312.25510	965.33765	-515.72839	199.81227	816.33234	-474.05759	151.42102	577.56586	-465.45627	106.14099	673.67657	-435.68109	116.75652	507.32483 
25	0.200	-475.41806	142.63629	1036.77880	-214.92772	95.21069	997.86896	-323.86575	324.31433	964.65692	-267.19330	312.10104	965.32672	-515.76752	199.67036	816.35675	-474.01660	151.34952	577.68018	-465.36700	106.02840	673.72467	-435.63623	116.66369	507.38406 
26	0.208	-475.28912	142.51700	1036.75130	-214.80121	95.06939	997.84216	-323.80225	324.11444	964.73053	-267.10773	311.97891	965.35211	-515.62079	199.59421	816.30872	-473.97241	151.31270	577.71741	-465.25406	105.98813	673.72711	-435.58530	116.61893	507.37042 
27	0.217	-475.16531	142.29457	1036.76140	-214.65312	94.98772	997.85242	-323.73224	324.00571	964.77887	-267.04810	311.88376	965.41663	-515.37994	199.37199	816.28491	-473.94565	151.27080	577.77136	-465.11832	105.88271	673.73932	-435.49219	116.54946	507.36923 
28	0.225	-475.00546	142.12608	1036.76650	-214.54538	94.90462	997.86975	-323.64294	323.91309	964.81158	-266.97321	311.80542	965.40698	-515.30688	199.26637	816.26752	-473.91571	151.18141	577.76782	-465.02368	105.75872	673.73724	-435.42590	116.50133	507.37726 
29	0.233	-474.86929	141.93675	1036.71390	-214.34224	94.78928	997.84943	-323.58047	323.81808	964.83795	-266.84491	311.69821	965.40143	-515.25549	199.12978	816.25800	-473.79614	151.07387	577.80762	-464.87964	105.65343	673.68945	-435.33258	116.36568	507.32428 
30	0.242	-474.69986	141.73454	1036.65170	-214.23434	94.66199	997.79773	-323.44556	323.66495	964.83728	-266.73660	311.56931	965.40784	-515.21802	199.09149	816.33008	-473.73331	150.94382	577.76447	-464.75266	105.55048	673.67194	-435.23813	116.29993	507.30460 
31	0.250	-474.53485	141.52693	1036.57340	-214.13799	94.51518	997.70209	-323.34018	323.56177	964.83234	-266.58527	311.42407	965.41956	-515.28796	199.04382	816.45905	-473.69177	150.85297	577.80200	-464.73309	105.46642	673.65308	-435.17386	116.17583	507.22241 
32	0.258	-474.42035	141.32332	1036.55440	-213.99893	94.37482	997.68414	-323.20511	323.43256	964.83154	-266.51828	311.29401	965.44965	-515.28314	198.94179	816.46960	-473.62100	150.77881	577.76288	-464.60025	105.32628	673.63147	-435.12018	116.16539	507.17270 
33	0.267	-474.29562	141.14984	1036.50890	-213.84091	94.22125	997.65576	-323.12762	323.25195	964.86481	-266.41287	311.13559	965.42755	-515.26514	198.85121	816.51666	-473.52029	150.64606	577.76135	-464.52316	105.25449	673.60229	-435.07227	116.08202	507.19641 
34	0.275	-474.21185	141.03221	1036.51430	-213.73195	94.07001	997.65393	-323.05884	323.11688	964.88116	-266.32373	311.01709	965.47223	-515.21600	198.84032	816.65924	-473.49548	150.56451	577.75641	-464.46234	105.15339	673.53534	-435.02808	116.01752	507.17407 
35	0.283	-474.15311	140.90076	1036.50160	-213.61772	93.95176	997.63965	-322.96628	323.05734	964.91046	-266.24152	310.93314	965.49976	-515.22412	198.73979	816.73370	-473.44073	150.46625	577.72687	-464.38156	105.05267	673.58026	-434.98575	115.89001	507.16751 
36	0.292	-474.08319	140.75989	1036.52140	-213.51288	93.79785	997.61749	-322.84601	322.85760	964.90497	-266.16736	310.77029	965.52454	-515.21143	198.58293	816.80347	-473.41122	150.40947	577.77783	-464.38324	104.98409	673.58820	-435.00446	115.85194	507.18625 
37	0.300	-474.01093	140.63391	1036.55550	-213.36572	93.69574	997.63055	-322.73892	322.73581	964.94574	-266.09103	310.67416	965.59399	-514.84943	198.47940	816.77869	-473.31339	150.31659	577.78052	-464.29517	104.88479	673.59735	-434.97015	115.79945	507.21622 
38	0.308	-473.89203	140.49602	1036.61410	-213.22743	93.60844	997.61713	-322.71765	322.65573	964.89612	-265.98694	310.55783	965.57947	-514.61572	198.36288	816.72772	-473.30017	150.24458	577.84528	-464.26727	104.83383	673.65149	-434.93179	115.71738	507.21930 
